<svg width="32" height="32" viewBox="0 0 32 32" fill="none" xmlns="http://www.w3.org/2000/svg">
<g clip-path="url(#clip0_211_93)">
<path fill-rule="evenodd" clip-rule="evenodd" d="M26.6719 9.71846H21.3333C21.0308 9.73036 20.7291 9.67969 20.4467 9.56958C20.1644 9.45946 19.9073 9.29223 19.6914 9.07817C19.4756 8.86411 19.3054 8.60775 19.1914 8.32487C19.0774 8.042 19.022 7.73858 19.0287 7.43331V1.97784H5.46876C5.44874 1.97819 5.429 1.98255 5.41067 1.99067C5.39234 1.99878 5.37579 2.01049 5.36199 2.02512C5.34512 2.03761 5.33188 2.05443 5.32363 2.07383C5.31539 2.09323 5.31245 2.1145 5.31511 2.13543V29.8672C5.31863 29.9073 5.33509 29.9451 5.36199 29.9749C5.37505 29.9904 5.39145 30.0028 5.40995 30.011C5.42846 30.0192 5.44857 30.023 5.46876 30.0222H26.5208C26.5677 30.0222 26.5651 29.9985 26.5886 29.9749C26.612 29.9512 26.6771 29.9013 26.6771 29.8672V9.71846H26.6719ZM28.6172 30.4897C28.6165 30.8907 28.4583 31.2752 28.1771 31.5587C27.8959 31.8423 27.5148 32.0019 27.1172 32.0026H4.85938C4.46177 32.0019 4.08064 31.8423 3.79948 31.5587C3.51833 31.2752 3.36007 30.8907 3.35938 30.4897V1.51293C3.35872 1.31419 3.3973 1.11732 3.47286 0.933778C3.54842 0.750238 3.65946 0.583707 3.79949 0.443897C4.08064 0.160318 4.46177 0.0006965 4.85938 0L20.0261 0C20.2567 0.00220183 20.4808 0.0775543 20.6667 0.215382L28.4141 8.12673C28.5077 8.2101 28.5764 8.31825 28.6123 8.43894C28.6482 8.55963 28.6499 8.68804 28.6172 8.80965V30.4871V30.4897ZM20.8333 7.27309L20.7214 2.52943L26.2136 8.14249L21.4896 7.92974C21.4027 7.93421 21.3158 7.92032 21.2345 7.88898C21.1533 7.85763 21.0794 7.80951 21.0176 7.74769C20.9558 7.68588 20.9075 7.61173 20.8758 7.53001C20.8441 7.44828 20.8296 7.36077 20.8333 7.27309Z" fill="white"/>
<path fill-rule="evenodd" clip-rule="evenodd" d="M1.7474 12.156H30.2526C30.7161 12.1574 31.1601 12.3439 31.4876 12.6747C31.8151 13.0055 31.9993 13.4536 32 13.9211V25.7671C31.9986 26.2341 31.8141 26.6816 31.4867 27.0118C31.1593 27.342 30.7156 27.5282 30.2526 27.5296H1.7474C1.28393 27.5282 0.839879 27.3417 0.512402 27.0109C0.184924 26.6801 0.000686614 26.2319 0 25.7645L0 13.9211C0.00137394 13.4541 0.185915 13.0066 0.513318 12.6764C0.840721 12.3462 1.28438 12.16 1.7474 12.1586V12.156Z" fill="#FF0000"/>
<path d="M4.25293 15.7018H8.47168C9.39095 15.7018 10.0785 15.9199 10.5394 16.3611C11.0003 16.8024 11.2243 17.4328 11.2243 18.247C11.2447 18.6091 11.1884 18.9713 11.0591 19.3097C10.9298 19.648 10.7304 19.9546 10.4743 20.2091C9.97689 20.6819 9.21387 20.9157 8.19043 20.9157H6.7972V23.9809H4.25293V15.7018ZM6.7972 19.2399H7.4222C7.78893 19.2743 8.15635 19.1817 8.46387 18.9772C8.55937 18.897 8.63567 18.796 8.68708 18.6818C8.73848 18.5677 8.76366 18.4433 8.76074 18.3179C8.76301 18.1957 8.74116 18.0742 8.69645 17.9606C8.65174 17.847 8.58508 17.7434 8.50033 17.656C8.32845 17.4748 8.00293 17.3934 7.52376 17.3934H6.7972V19.232V19.2399ZM12.5785 15.7018H16.3493C16.9642 15.6794 17.5773 15.7831 18.1514 16.0065C18.5948 16.1993 18.984 16.4998 19.2842 16.8812C19.5877 17.2692 19.8085 17.7164 19.9326 18.1945C20.0703 18.7181 20.1386 19.2577 20.1357 19.7994C20.1654 20.4987 20.0638 21.1973 19.8363 21.8586C19.6548 22.3273 19.3729 22.7498 19.0107 23.0958C18.6894 23.4072 18.2966 23.6337 17.8675 23.755C17.3752 23.897 16.8665 23.973 16.3545 23.9809H12.5785V15.7018ZM15.1045 17.5746V22.0976H15.7295C16.1164 22.1227 16.504 22.0617 16.8649 21.919C17.1036 21.7784 17.2874 21.5597 17.3857 21.2991C17.5379 20.8356 17.6024 20.3473 17.5758 19.8598C17.5758 18.9842 17.4344 18.3845 17.1514 18.0605C16.8675 17.7375 16.3936 17.5746 15.7347 17.5746H15.1045ZM21.4665 15.7018H27.7399V17.4827H24.0212V18.9273H27.2087V20.6057H24.0212V23.9809H21.4743V15.7018H21.4665Z" fill="white"/>
</g>
<defs>
<clipPath id="clip0_211_93">
<rect width="32" height="32" fill="white"/>
</clipPath>
</defs>
</svg>
